# xmcd
#
# Track frame offsets:
#	150
#	15032
#	29792
#	45496
#	61925
#	75516
#	90041
#	103247
#	121740
#	137293
#	153971
#	169102
#	183491
#	195616
#	212445
#	233394
#	246408
#	260845
#
# Disc length: 3680 seconds
#
# Revision: 0
# Processed by: cddbd v1.5.2PL0 Copyright (c) Steve Scherf et al.
# Submitted via: EZCDAudioConverter 7.1.0.1
#
DISCID=d70e5e12
DTITLE=Nu Country Traxx Volume 226 US
DYEAR=2018
DGENRE=country
TTITLE0=Dan and Shay - Tequila
TTITLE1=Jason Aldean - You Make It Easy
TTITLE2=Maren Morris - Rich
TTITLE3=Blake Shelton - I Lived It
TTITLE4=Dierks Bentley - Woman, Amen
TTITLE5=Aaron Watson - Run Wild Horses
TTITLE6=Reagan Hudson - Honky Tonk Side
TTITLE7=Kid Rock - American Rock 'n Roll
TTITLE8=Chris Janson - Drunk Girl
TTITLE9=Tim Elliott - I Got You
TTITLE10=LANco - Born to Love You
TTITLE11=Jillian Jacqueline - Reasons
TTITLE12=Sir Rosevelt - Something 'Bout You
TTITLE13=Carrie Underwood ft. Ludacris - The Champion
TTITLE14=Justin Timberlake ft. Chris Stapleton - Say Something
TTITLE15=The Lovelocks - Staycation
TTITLE16=Samara Yung - Highlights
TTITLE17=Lisa Nicole - Mad About It
EXTD=
EXTT0=
EXTT1=
EXTT2=
EXTT3=
EXTT4=
EXTT5=
EXTT6=
EXTT7=
EXTT8=
EXTT9=
EXTT10=
EXTT11=
EXTT12=
EXTT13=
EXTT14=
EXTT15=
EXTT16=
EXTT17=
PLAYORDER=
